{"title":"Premature (2014) Dual Audio BDRip 720p","uid":11252746,"size":3414079854,"categoryP":"video","categoryS":"hd___movies","magnet":"?xt=urn:btih:1a4ad0bd68d77ecae6f8c505cedba0310b551d42&amp;dn=Premature+%282014%29+Dual+Audio+BDRip+720p&amp;tr=udp%3A%2F%2Ftracker.openbittorrent.com%3A80&amp;tr=udp%3A%2F%2Fopen.demonii.com%3A1337&amp;tr=udp%3A%2F%2Ftracker.coppersurfer.tk%3A6969&amp;tr=udp%3A%2F%2Fexodus.desync.com%3A6969","seeders":33,"leechers":1,"uploader":"darkj6","files":-1,"time":1413857930,"description":" ______   _______  ______    ___   _      ___  --------|\n|      | |   _   ||    _ |  |   | | |    |   ||   |----|    \n|  _    ||  |_|  ||   | ||  |   |_| |    |   ||   |___ \n| | |   ||       ||   |_||_ |      _|    |   ||    _  |\n| |_|   ||       ||    __  ||     |_  ___|   ||   | | |\n|       ||   _   ||   |  | ||    _  ||       ||   |_| |\n|______| |__| |__||___|  |_||___| |_||_______||_______|\n                                                                          &lt;a href=&quot;\nhttps://thepiratebay.se/user/darkj6/&quot; rel=&quot;nofollow&quot; target=&quot;_NEW&quot;&gt;\nhttps://thepiratebay.se/user/darkj6/&lt;/a&gt;\n\nJoin ThePirateBay Forum:\n                                                                                                   &lt;a href=&quot;\nhttps://forum.suprbay.org/member.php?action=register&amp;referrer=908&quot; rel=&quot;nofollow&quot; target=&quot;_NEW&quot;&gt;\nhttps://forum.suprbay.org/member.php?action=register&amp;referrer=908&lt;/a&gt;\n\n\nFormat : MKV \n\nQuality : BDRip 720p \n\nVideo : 3867 kb / s, 1280x546 \n\nAudio : Russian: AC3, 256 kb / s (2 ch) \n\n        English: AC3, 640 kb / s (6 ch) \n\nSubtitles : English\n\n &lt;a href=&quot;\nhttp://you-logo.ru/show-image.php?id=8272c2abacce28f7ba4364817ae616a0&quot; rel=&quot;nofollow&quot; target=&quot;_NEW&quot;&gt;\nhttp://you-logo.ru/show-image.php?id=8272c2abacce28f7ba4364817ae616a0&lt;/a&gt;\n &lt;a href=&quot;\nhttp://you-logo.ru/show-image.php?id=7e78736c7a89e6374cc5d06824a784f2&quot; rel=&quot;nofollow&quot; target=&quot;_NEW&quot;&gt;\nhttp://you-logo.ru/show-image.php?id=7e78736c7a89e6374cc5d06824a784f2&lt;/a&gt;\n &lt;a href=&quot;\nhttp://you-logo.ru/show-image.php?id=6950f63f4c9791e462b2c6530e40ab3c&quot; rel=&quot;nofollow&quot; target=&quot;_NEW&quot;&gt;\nhttp://you-logo.ru/show-image.php?id=6950f63f4c9791e462b2c6530e40ab3c&lt;/a&gt;\n &lt;a href=&quot;\nhttp://you-logo.ru/show-image.php?id=ec943d31753043fd972b213e860fe47d&quot; rel=&quot;nofollow&quot; target=&quot;_NEW&quot;&gt;\nhttp://you-logo.ru/show-image.php?id=ec943d31753043fd972b213e860fe47d&lt;/a&gt;\n &lt;a href=&quot;\nhttp://you-logo.ru/show-image.php?id=18f59e97af175752ea88f9abcc88360e&quot; rel=&quot;nofollow&quot; target=&quot;_NEW&quot;&gt;\nhttp://you-logo.ru/show-image.php?id=18f59e97af175752ea88f9abcc88360e&lt;/a&gt;\n &lt;a href=&quot;\nhttp://you-logo.ru/show-image.php?id=57938000e7640f1a05d838125002982a&quot; rel=&quot;nofollow&quot; target=&quot;_NEW&quot;&gt;\nhttp://you-logo.ru/show-image.php?id=57938000e7640f1a05d838125002982a&lt;/a&gt;\n\n\nFormat : Matroska\nFormat version : Version 4 / Version 2\nFile size : 3.18 GiB\nDuration : 1h 33mn\nOverall bit rate : 4 860 Kbps\nEncoded date : UTC 2014-10-20 22:19:08\nWriting application : mkvmerge v6.1.0 ('Old Devil') built on Mar 4 2013 09:10:42\nWriting library : libebml v1.3.0 + libmatroska v1.4.0\nDURATION : 00:56:24.208000000\nNUMBER_OF_FRAMES : 10\nNUMBER_OF_BYTES : 288\n_STATISTICS_WRITING_APP : mkvmerge v7.1.0 ('Good Love') 64bit built on Jul 27 2014 13:06:55\n_STATISTICS_WRITING_DATE_UTC : 2014-10-19 15:40:13\n_STATISTICS_TAGS : BPS DURATION NUMBER_OF_FRAMES NUMBER_OF_BYTES\n\nVideo\nID : 1\nFormat : AVC\nFormat/Info : Advanced Video Codec\nFormat profile : &lt;a class=&quot;__cf_email__&quot; href=&quot;/cdn-cgi/l/email-protection&quot; data-cfemail=&quot;1f577678775f532b312e&quot;&gt;[email&amp;#160;protected]&lt;/a&gt;&lt;script cf-hash='f9e31' type=&quot;text/javascript&quot;&gt;\n/* &lt;![CDATA[ */!function(){try{var t=&quot;currentScript&quot;in document?document.currentScript:function(){for(var t=document.getElementsByTagName(&quot;script&quot;),e=t.length;e--;)if(t[e].getAttribute(&quot;cf-hash&quot;))return t[e]}();if(t&amp;&amp;t.previousSibling){var e,r,n,i,c=t.previousSibling,a=c.getAttribute(&quot;data-cfemail&quot;);if(a){for(e=&quot;&quot;,r=parseInt(a.substr(0,2),16),n=2;a.length-n;n+=2)i=parseInt(a.substr(n,2),16)^r,e+=String.fromCharCode(i);e=document.createTextNode(e),c.parentNode.replaceChild(e,c)}}}catch(u){}}();/* ]]&gt; */&lt;/script&gt;\nFormat settings, CABAC : Yes\nFormat settings, ReFrames : 11 frames\nCodec ID : V_MPEG4/ISO/AVC\nDuration : 1h 33mn\nBit rate : 3 867 Kbps\nWidth : 1 280 pixels\nHeight : 546 pixels\nDisplay aspect ratio : 2.35:1\nFrame rate : 24.000 fps\nColor space : YUV\nChroma subsampling : 4:2:0\nBit depth : 8 bits\nScan type : Progressive\nBits/(Pixel*Frame) : 0.231\nStream size : 2.53 GiB (80%)\nWriting library : x264 core 142 r2453 ea0ca51\nEncoding settings : cabac=1 / ref=11 / deblock=1:-3:-3 / analyse=0x3:0x133 / me=umh / subme=10 / psy=1 / psy_rd=0.90:0.00 / mixed_ref=1 / me_range=16 / chroma_me=1 / trellis=2 / 8x8dct=1 / cqm=0 / deadzone=21,11 / fast_pskip=0 / chroma_qp_offset=-2 / threads=12 / lookahead_threads=2 / sliced_threads=0 / nr=0 / decimate=0 / interlaced=0 / bluray_compat=0 / constrained_intra=0 / bframes=8 / b_pyramid=2 / b_adapt=2 / b_bias=0 / direct=3 / weightb=1 / open_gop=0 / weightp=2 / keyint=250 / keyint_min=24 / scenecut=40 / intra_refresh=0 / rc=crf / mbtree=0 / crf=17.0 / qcomp=0.60 / qpmin=0 / qpmax=69 / qpstep=4 / ip_ratio=1.40 / pb_ratio=1.20 / aq=1:0.80 / zones=0,336,q=10\nLanguage : English\nDefault : Yes\nForced : No\nDURATION : 01:33:40.250000000\nNUMBER_OF_FRAMES : 134886\nNUMBER_OF_BYTES : 2783137545\n_STATISTICS_WRITING_APP : mkvmerge v7.1.0 ('Good Love') 64bit built on Jul 27 2014 13:06:55\n_STATISTICS_WRITING_DATE_UTC : 2014-10-19 15:40:13\n_STATISTICS_TAGS : BPS DURATION NUMBER_OF_FRAMES NUMBER_OF_BYTES\n\nAudio #1\nID : 2\nFormat : AC-3\nFormat/Info : Audio Coding 3\nMode extension : CM (complete main)\nFormat settings, Endianness : Big\nCodec ID : A_AC3\nDuration : 1h 33mn\nBit rate mode : Constant\nBit rate : 256 Kbps\nChannel(s) : 2 channels\nChannel positions : Front: L R\nSampling rate : 48.0 KHz\nBit depth : 16 bits\nCompression mode : Lossy\nStream size : 172 MiB (5%)\nLanguage : Russian\nDefault : Yes\nForced : No\n\nAudio #2\nID : 3\nFormat : AC-3\nFormat/Info : Audio Coding 3\nMode extension : CM (complete main)\nFormat settings, Endianness : Big\nCodec ID : A_AC3\nDuration : 1h 33mn\nBit rate mode : Constant\nBit rate : 640 Kbps\nChannel(s) : 6 channels\nChannel positions : Front: L C R, Side: L R, LFE\nSampling rate : 48.0 KHz\nBit depth : 16 bits\nCompression mode : Lossy\nStream size : 429 MiB (13%)\nLanguage : English\nDefault : No\nForced : No\n\nText\nID : 4\nFormat : UTF-8\nCodec ID : S_TEXT/UTF8\nCodec ID/Info : UTF-8 Plain Text\nLanguage : English\nDefault : No\nForced : No\n\nMenu\n00:00:00.000 : en:00:00:00.000\n00:09:16.042 : en:00:09:16.042\n00:19:23.250 : en:00:19:23.250\n00:30:12.125 : en:00:30:12.125\n00:40:17.000 : en:00:40:17.000\n00:51:11.833 : en:00:51:11.833\n01:01:13.792 : en:01:01:13.792\n01:12:07.917 : en:01:12:07.917\n01:20:39.625 : en:01:20:39.625\n01:28:40.417 : en:01:28:40.417","torrent":{"xt":"urn:btih:1a4ad0bd68d77ecae6f8c505cedba0310b551d42","amp;dn":"Premature+%282014%29+Dual+Audio+BDRip+720p","amp;tr":["udp%3A%2F%2Ftracker.openbittorrent.com%3A80","udp%3A%2F%2Fopen.demonii.com%3A1337","udp%3A%2F%2Ftracker.coppersurfer.tk%3A6969","udp%3A%2F%2Fexodus.desync.com%3A6969"],"infoHash":"1a4ad0bd68d77ecae6f8c505cedba0310b551d42","infoHashBuffer":{"type":"Buffer","data":[26,74,208,189,104,215,126,202,230,248,197,5,206,219,160,49,11,85,29,66]},"announce":[],"urlList":[]}}